<?xml version="1.0" encoding="UTF-8"?>
<!DOCTYPE svg PUBLIC "-//W3C//DTD SVG 1.1//EN" "http://www.w3.org/Graphics/SVG/1.1/DTD/svg11.dtd">
<!-- Creator: CorelDRAW -->
<svg xmlns="http://www.w3.org/2000/svg" xml:space="preserve" width="4.12318in" height="3.77595in" version="1.1" style="shape-rendering:geometricPrecision; text-rendering:geometricPrecision; image-rendering:optimizeQuality; fill-rule:evenodd; clip-rule:evenodd"
viewBox="0 0 422.25 386.69"
 xmlns:xlink="http://www.w3.org/1999/xlink"
 xmlns:xodm="http://www.corel.com/coreldraw/odm/2003">
 <defs>
  <style type="text/css">
   <![CDATA[
    .fil2 {fill:url(#id0)}
    .fil1 {fill:url(#id1)}
    .fil3 {fill:url(#id2)}
    .fil4 {fill:url(#id3)}
    .fil0 {fill:url(#id4)}
   ]]>
  </style>
  <linearGradient id="id0" gradientUnits="userSpaceOnUse" x1="208.76" y1="132.12" x2="291.74" y2="193.78">
   <stop offset="0" style="stop-opacity:1; stop-color:#A486DC"/>
   <stop offset="1" style="stop-opacity:1; stop-color:#FD7B6D"/>
  </linearGradient>
  <linearGradient id="id1" gradientUnits="userSpaceOnUse" x1="296.42" y1="253.69" x2="403.23" y2="322.22">
   <stop offset="0" style="stop-opacity:1; stop-color:#B46CD8"/>
   <stop offset="1" style="stop-opacity:1; stop-color:#F35494"/>
  </linearGradient>
  <linearGradient id="id2" gradientUnits="userSpaceOnUse" x1="-22.18" y1="138" x2="200.27" y2="5.68">
   <stop offset="0" style="stop-opacity:1; stop-color:#F0AC68"/>
   <stop offset="1" style="stop-opacity:1; stop-color:#DE5414"/>
  </linearGradient>
  <linearGradient id="id3" gradientUnits="userSpaceOnUse" xlink:href="#id2" x1="58.34" y1="129.21" x2="174.87" y2="38.43">
  </linearGradient>
  <linearGradient id="id4" gradientUnits="userSpaceOnUse" x1="79.65" y1="166.74" x2="229.1" y2="313.34">
   <stop offset="0" style="stop-opacity:1; stop-color:#50A7F4"/>
   <stop offset="1" style="stop-opacity:1; stop-color:#A545F1"/>
  </linearGradient>
 </defs>
 <g id="Layer_x0020_1">
  <metadata id="CorelCorpID_0Corel-Layer"/>
  <g id="_105553188511584">
   <path class="fil0" d="M225.27 114.98c1.27,-2.67 0.16,-5.7 -1.6,-7.43 -2.39,-2.34 -4.7,-2.18 -8.22,-2.18 -35.83,-0.05 -62.87,-4.25 -91.15,14.94 -36.26,24.61 -49.24,78.75 -22.11,118.54 28.7,42.08 67.8,33.45 82.02,44.75 7.63,6.07 14.4,16.7 9.36,30.33 -6.66,18 -29.32,20.65 -40.67,9.93l-1.62 -1.65c-11,-11.4 -5.08,-25.17 -7.99,-31.25 -2.6,-5.43 -10.05,-3.9 -16.98,-3.93 -7.09,-0.03 -14.17,0.05 -21.25,0.02 -6.81,-0.03 -13.28,-0.81 -16.13,4.79 -3.17,6.22 0.56,29.96 2.68,36.96 4.46,14.71 10.85,23.75 20,33.11 22.1,22.62 55.3,30.81 86.36,19.38 18.98,-6.98 35.78,-21.92 44.84,-40.23 20.83,-42.09 2.51,-90.81 -40.35,-111.74 -12.8,-6.25 -19.06,-6.21 -33.33,-9.23 -29.53,-6.24 -30.19,-38.38 -16.5,-51.02 14.14,-13.05 21.04,-2.46 30.4,-12.11 5.73,-5.91 40.52,-38.34 42.26,-42z"/>
   <path class="fil1" d="M421.49 312.06c1.38,-12.93 0.48,-98.56 0.48,-121.2 0,-8.15 0.25,-14.29 0.19,-18.91l0.01 -25.2c-0.05,-3.86 -16.8,-30.34 -20,-35.76 -8.32,-14.1 -6.38,-15.27 -24.07,14.97 -12.93,22.11 -11.13,12.61 -11.24,35.73l-0 9.15c-0.03,1.12 -0.04,2.34 -0.03,3.67 0.25,46.57 0.1,40.27 0.02,86.85 -0.02,11.72 -0.01,23.44 -0.02,35.16 -0.01,12.16 -1.16,19.29 -8.34,26.19 -14.75,14.18 -38.24,6.81 -43.76,-11.04 -2.84,-9.19 -1.28,-55.83 -1.3,-69.12 -0.02,-11.42 2.86,-25.11 -8.94,-26.35 -15.56,-1.63 -10.95,17.71 -11.59,23.07 -0.51,4.22 -13.3,15.69 -16.37,18.63 -3.3,3.17 -15.51,14.55 -17.1,18.01 -1.95,4.25 -1.42,28.67 -0.93,34.54 0.81,9.89 3.28,19.36 6.99,27.57 3.93,8.71 8.82,15.8 13.65,21.53l9.22 8.77c39.5,30.72 91.63,21.75 119.43,-18.38 7.3,-10.54 12.28,-24.46 13.71,-37.89zm-34.31 -194.03c2.49,0.42 7.25,0.13 10.13,0.13 6.98,-0.02 4.55,-0.59 13.98,15.23 2.49,4.17 4.65,5.77 -0.65,9.54 -1.99,-1.2 -2.67,-2.94 -4.22,-4.91 -4.78,6.29 -3.63,6.1 -8.23,0.06l-4.07 4.85c-2.03,-1.19 -2.77,-3.03 -4.28,-4.89 -1.43,1.9 -2.22,3.77 -4.45,5.04l-3.81 -5.01 -3.93 4.86c-5.94,-3.14 -0.91,-7.79 1.75,-12.3 2.13,-3.61 5.24,-9.53 7.77,-12.6z"/>
   <path class="fil2" d="M257.1 259.06c3.19,-1.7 16,-15.89 19.91,-19.5 5.19,-4.78 3.76,-5.24 3.81,-15.81 0.17,-35.22 -6.33,-29.7 29.41,-29.6 5.9,0.02 13.94,0.54 19.59,0.03 6.2,-0.56 8.17,-6.15 4.7,-11.05l-73.81 -73.4c-2.03,-2.07 -3.26,-3.59 -7.55,-2.87 -2.52,0.43 -3.96,2.2 -5.96,3.94 -2.27,1.98 -2.45,2.79 -4.75,5.07 -2.37,2.35 -3.02,2.33 -5.06,4.76l-14.63 14.76c-3.71,3.35 -6.28,6.37 -9.79,9.86 -0.29,0.29 -37.81,36.46 -38.86,39.68 -4.3,13.09 20.17,9.26 29.04,9.19 28.53,-0.24 25.79,-1.59 25.64,14.09 -0.06,6.56 0.05,13.1 -0.01,19.64 -0.1,11.73 3.25,11.37 15.62,23.32 2.94,2.84 6.34,8.51 12.7,7.88z"/>
   <path class="fil3" d="M179.81 46.47c12.95,0 10.33,2.56 17.98,-4.84 2.14,-2.06 3.94,-3.75 6.08,-5.8 2.03,-1.95 3.51,-3.8 5.55,-5.81 3.52,-3.47 22.27,-20.14 22.77,-23.06 -39.89,-1.35 -84.9,-3.88 -125.24,-6.21 -5.04,-0.29 -15.58,-1.91 -18.99,0.79 -1.87,1.48 -34.81,42.63 -39.32,48.01l-43.93 53.71c-1.44,1.73 -3.85,4.28 -4.71,6.29l36.36 -2.75c0.07,19.79 0.62,47.39 0.06,66.19 -0.18,6.18 -7.5,7.12 -4.26,14.85 1.43,3.41 4.06,2.88 3.52,6.71 -0.51,3.68 -6.1,19.23 -6.09,23.69l24.39 -0.07c-0.25,-2.55 -5.24,-16.6 -6.64,-20.72 -1.05,-3.09 -2.13,-4.25 -0.07,-6.63 4.29,-4.92 3.04,-9.06 -0.51,-13.46 -2.21,-2.73 -1.3,-12.28 -1.3,-16.79 -0,-6.35 -0.6,-51.85 0.44,-54.42 9.84,-2.66 7.56,3.41 16.34,-7.34 10.25,-12.54 23.57,-24.02 38.45,-32.34 23.71,-13.26 48.12,-20 79.11,-19.99z"/>
   <path class="fil4" d="M203.73 99.91c-46.03,-6.18 -92.7,5.06 -114.97,53.41 -1.63,-2.5 -27.58,-44.54 -27.52,-45.7 0.17,-3.38 10.78,-13.13 13,-15.45 1.63,-1.72 1.81,-2.17 3.64,-3.59 1.39,-1.08 2.18,-2.01 3.6,-3.11 25.69,-19.93 53.06,-32.42 91.38,-35.16 3.84,-0.27 10.25,-0.81 13.94,-0.51 2.66,0.22 2.67,1.23 3.64,3.5l15.07 34.02c0.65,1.47 -1.96,11.63 -1.78,12.59z"/>
  </g>
 </g>
</svg>
